<svg width="156" height="16" viewBox="0 0 156 16" fill="none" xmlns="http://www.w3.org/2000/svg">
<path d="M31.6561 10.4073H29.8521V1.14808H31.6436L34.1867 4.98405L36.7299 1.14808H38.5089V10.4073H36.7299V4.07136L34.7129 7.04755H33.7107L31.6561 4.07136V10.4073Z" fill="#333333"/>
<path d="M43.5038 7.94702C44.0217 8.52021 44.669 8.8068 45.4457 8.8068C46.2141 8.8068 46.8572 8.52021 47.375 7.94702C47.8928 7.37382 48.1517 6.65072 48.1517 5.7777C48.1517 4.90469 47.8928 4.18158 47.375 3.60839C46.8572 3.0352 46.2141 2.7486 45.4457 2.7486C44.669 2.7486 44.0217 3.0352 43.5038 3.60839C42.9944 4.17277 42.7396 4.89587 42.7396 5.7777C42.7396 6.65954 42.9944 7.38264 43.5038 7.94702ZM40.898 5.7777C40.898 4.41968 41.3282 3.28211 42.1884 2.36501C43.0487 1.43026 44.1344 0.962891 45.4457 0.962891C46.7486 0.962891 47.8302 1.43026 48.6904 2.36501C49.559 3.29975 49.9934 4.43732 49.9934 5.7777C49.9934 7.10927 49.559 8.24684 48.6904 9.1904C47.8302 10.1251 46.7486 10.5925 45.4457 10.5925C44.1344 10.5925 43.0487 10.1251 42.1884 9.1904C41.3282 8.25566 40.898 7.11809 40.898 5.7777Z" fill="#333333"/>
<path d="M56.0072 10.5925C54.9131 10.5925 54.0152 10.2354 53.3137 9.52109C52.6121 8.8068 52.2613 7.80592 52.2613 6.51844V1.14808H54.0528V6.58458C54.0528 7.29887 54.2282 7.85001 54.579 8.23802C54.9381 8.61721 55.4142 8.8068 56.0072 8.8068C56.6085 8.8068 57.0846 8.61721 57.4354 8.23802C57.7945 7.85001 57.9741 7.29887 57.9741 6.58458V1.14808H59.7781V6.51844C59.7781 7.80592 59.4232 8.8068 58.7132 9.52109C58.0117 10.2354 57.1096 10.5925 56.0072 10.5925Z" fill="#333333"/>
<path d="M64.1047 10.4073H62.3382V1.14808H63.8792L68.3015 7.074V1.14808H70.0555V10.4073H68.5646L64.1047 4.45495V10.4073Z" fill="#333333"/>
<path d="M72.1662 2.85442V1.14808H79.5202V2.85442H76.739V10.4073H74.9349V2.85442H72.1662Z" fill="#333333"/>
<path d="M81.4977 10.4073H79.606L83.3644 1.09517H85.0933L88.8517 10.4073H86.9349L86.0705 8.26448H82.3622L81.4977 10.4073ZM84.2163 3.47612L82.9259 6.6904H85.4942L84.2163 3.47612Z" fill="#333333"/>
<path d="M92.6167 10.4073H90.8252V1.14808H92.6167V10.4073Z" fill="#333333"/>
<path d="M97.1223 10.4073H95.3559V1.14808H96.8968L101.319 7.074V1.14808H103.073V10.4073H101.582L97.1223 4.45495V10.4073Z" fill="#333333"/>
<path d="M111.534 10.4073H109.73V1.14808H111.534V4.61368H115.493V1.14808H117.284V10.4073H115.493V6.34649H111.534V10.4073Z" fill="#333333"/>
<path d="M126.553 10.4073H119.975V1.14808H126.415V2.85442H121.779V4.64014H125.513V6.32003H121.779V8.70098H126.553V10.4073Z" fill="#333333"/>
<path d="M129.868 10.4073H127.976L131.735 1.09517H133.464L137.222 10.4073H135.305L134.441 8.26448H130.732L129.868 10.4073ZM132.587 3.47612L131.296 6.6904H133.864L132.587 3.47612Z" fill="#333333"/>
<path d="M142.415 10.4073H139.133V1.14808H142.415C143.835 1.14808 144.992 1.58017 145.885 2.44437C146.779 3.30857 147.226 4.41968 147.226 5.7777C147.226 7.14455 146.779 8.26007 145.885 9.12426C145 9.97964 143.843 10.4073 142.415 10.4073ZM140.937 2.85442V8.70098H142.265C143.242 8.70098 144.002 8.44525 144.545 7.93379C145.096 7.41351 145.372 6.69481 145.372 5.7777C145.372 4.8606 145.096 4.14631 144.545 3.63485C144.002 3.11457 143.242 2.85442 142.265 2.85442H140.937Z" fill="#333333"/>
<path d="M152.517 10.5925C151.198 10.5925 150.087 10.2618 149.185 9.60045V7.61633C149.552 7.95142 150.037 8.24243 150.638 8.48934C151.248 8.72744 151.849 8.84649 152.442 8.84649C152.935 8.84649 153.34 8.75389 153.657 8.56871C153.975 8.37471 154.133 8.11015 154.133 7.77506C154.133 7.41351 153.983 7.15777 153.682 7.00786C153.557 6.9285 153.39 6.84913 153.181 6.76977L152.881 6.66395L152.179 6.43908L151.528 6.21421C151.436 6.18776 151.24 6.1128 150.939 5.98934C150.68 5.88352 150.492 5.79093 150.375 5.71157C149.941 5.39411 149.665 5.12515 149.548 4.90469C149.348 4.48141 149.248 4.04931 149.248 3.60839C149.248 2.78829 149.544 2.14455 150.137 1.67718C150.73 1.20099 151.536 0.962891 152.555 0.962891C153.582 0.962891 154.539 1.21862 155.424 1.73009V3.58194C154.53 2.99993 153.582 2.70892 152.58 2.70892C151.586 2.70892 151.089 3.01315 151.089 3.62162C151.089 3.88617 151.244 4.09781 151.553 4.25654C151.736 4.36236 151.975 4.45495 152.267 4.53432C152.659 4.64896 152.977 4.74596 153.219 4.82532C153.946 5.06342 154.58 5.38529 155.123 5.79093C155.708 6.22303 156 6.86677 156 7.72215C156 8.6128 155.67 9.31386 155.01 9.82532C154.351 10.3368 153.52 10.5925 152.517 10.5925Z" fill="#333333"/>
<path d="M15.1113 0L22.0395 11.3333H8.18312L15.1113 0Z" fill="#333333"/>
<path d="M7.55555 0L14.0988 11.3333H1.01225L7.55555 0Z" fill="#46C4FF"/>
</svg>
