<svg width="36" height="36" viewBox="0 0 36 36" fill="none" xmlns="http://www.w3.org/2000/svg">
<path d="M36 18C36 27.941 27.941 36 18 36C8.059 36 0 27.941 0 18C0 8.059 8.059 0 18 0C27.941 0 36 8.059 36 18Z" fill="#FFCC4D"/>
<path d="M18 21C14.377 21 11.973 20.578 9 20C8.321 19.869 7 20 7 22C7 26 11.595 31 18 31C24.404 31 29 26 29 22C29 20 27.679 19.868 27 20C24.027 20.578 21.623 21 18 21Z" fill="#664500"/>
<path d="M9 22C9 22 12 23 18 23C24 23 27 22 27 22C27 22 25 26 18 26C11 26 9 22 9 22Z" fill="white"/>
<path d="M15.682 4.41279L11.14 5.21379L8.80002 0.960785C8.54202 0.491785 8.01202 0.240785 7.48802 0.332785C6.96102 0.425785 6.55102 0.843785 6.46902 1.37179L5.72402 6.16879L1.18202 6.96979C0.647018 7.06379 0.234018 7.49479 0.161018 8.03379C0.0880181 8.57279 0.372018 9.09679 0.864018 9.33079L4.93402 11.2628L4.18602 16.0748C4.10302 16.6108 4.37502 17.1388 4.85902 17.3838C5.03802 17.4738 5.23002 17.5168 5.42102 17.5168C5.74802 17.5168 6.07102 17.3888 6.31202 17.1448L9.82402 13.5838L14.342 15.7288C14.832 15.9608 15.416 15.8518 15.788 15.4568C16.16 15.0618 16.234 14.4728 15.973 13.9978L13.625 9.72978L16.79 6.52179C17.172 6.13479 17.259 5.54479 17.007 5.06279C16.753 4.58079 16.214 4.31979 15.682 4.41279ZM20.318 4.41279L24.86 5.21379L27.2 0.960785C27.458 0.491785 27.988 0.240785 28.512 0.332785C29.038 0.425785 29.448 0.843785 29.53 1.37179L30.275 6.16879L34.817 6.96979C35.353 7.06379 35.766 7.49379 35.838 8.03279C35.91 8.57178 35.627 9.09579 35.135 9.32979L31.065 11.2618L31.813 16.0738C31.896 16.6098 31.624 17.1378 31.14 17.3828C30.961 17.4728 30.769 17.5158 30.578 17.5158C30.251 17.5158 29.928 17.3878 29.687 17.1438L26.175 13.5828L21.657 15.7278C21.167 15.9598 20.583 15.8508 20.211 15.4558C19.839 15.0608 19.765 14.4718 20.026 13.9968L22.374 9.72978L19.209 6.52179C18.827 6.13479 18.74 5.54479 18.992 5.06279C19.247 4.58079 19.786 4.31979 20.318 4.41279Z" fill="#E95F28"/>
</svg>
