<svg width="216" height="145" viewBox="0 0 216 145" fill="none" xmlns="http://www.w3.org/2000/svg">
<g clip-path="url(#clip0)">
<g style="mix-blend-mode:multiply">
<rect width="216" height="145" rx="10" fill="#6C5DD3"/>
</g>
<rect width="216" height="145" rx="10" fill="url(#paint0_linear)"/>
<circle cx="167" cy="40" r="124" fill="url(#paint1_radial)" fill-opacity="0.4"/>
<path d="M35.584 94L35.568 87.296L32.272 92.816H31.12L27.824 87.424V94H25.392V82.8H27.536L31.728 89.76L35.856 82.8H38L38.016 94H35.584ZM44.1383 94.128C43.2316 94.128 42.4156 93.9413 41.6903 93.568C40.9756 93.184 40.4156 92.656 40.0103 91.984C39.6049 91.312 39.4023 90.5493 39.4023 89.696C39.4023 88.8427 39.6049 88.08 40.0103 87.408C40.4156 86.736 40.9756 86.2133 41.6903 85.84C42.4156 85.456 43.2316 85.264 44.1383 85.264C45.0449 85.264 45.8556 85.456 46.5703 85.84C47.2849 86.2133 47.8449 86.736 48.2503 87.408C48.6556 88.08 48.8583 88.8427 48.8583 89.696C48.8583 90.5493 48.6556 91.312 48.2503 91.984C47.8449 92.656 47.2849 93.184 46.5703 93.568C45.8556 93.9413 45.0449 94.128 44.1383 94.128ZM44.1383 92.08C44.7783 92.08 45.3009 91.8667 45.7063 91.44C46.1223 91.0027 46.3303 90.4213 46.3303 89.696C46.3303 88.9707 46.1223 88.3947 45.7063 87.968C45.3009 87.5307 44.7783 87.312 44.1383 87.312C43.4983 87.312 42.9703 87.5307 42.5543 87.968C42.1383 88.3947 41.9303 88.9707 41.9303 89.696C41.9303 90.4213 42.1383 91.0027 42.5543 91.44C42.9703 91.8667 43.4983 92.08 44.1383 92.08ZM58.206 85.392V94H55.71V87.44H52.99L52.91 88.96C52.8673 90.0907 52.7607 91.0293 52.59 91.776C52.4193 92.5227 52.142 93.1093 51.758 93.536C51.374 93.9627 50.8407 94.176 50.158 94.176C49.7953 94.176 49.3633 94.112 48.862 93.984L48.99 91.936C49.1607 91.9573 49.2833 91.968 49.358 91.968C49.7313 91.968 50.0087 91.8347 50.19 91.568C50.382 91.2907 50.51 90.944 50.574 90.528C50.638 90.1013 50.686 89.5413 50.718 88.848L50.846 85.392H58.206ZM64.1383 94.128C63.2316 94.128 62.4156 93.9413 61.6903 93.568C60.9756 93.184 60.4156 92.656 60.0103 91.984C59.6049 91.312 59.4023 90.5493 59.4023 89.696C59.4023 88.8427 59.6049 88.08 60.0103 87.408C60.4156 86.736 60.9756 86.2133 61.6903 85.84C62.4156 85.456 63.2316 85.264 64.1383 85.264C65.0449 85.264 65.8556 85.456 66.5703 85.84C67.2849 86.2133 67.8449 86.736 68.2503 87.408C68.6556 88.08 68.8583 88.8427 68.8583 89.696C68.8583 90.5493 68.6556 91.312 68.2503 91.984C67.8449 92.656 67.2849 93.184 66.5703 93.568C65.8556 93.9413 65.0449 94.128 64.1383 94.128ZM64.1383 92.08C64.7783 92.08 65.3009 91.8667 65.7063 91.44C66.1223 91.0027 66.3303 90.4213 66.3303 89.696C66.3303 88.9707 66.1223 88.3947 65.7063 87.968C65.3009 87.5307 64.7783 87.312 64.1383 87.312C63.4983 87.312 62.9703 87.5307 62.5543 87.968C62.1383 88.3947 61.9303 88.9707 61.9303 89.696C61.9303 90.4213 62.1383 91.0027 62.5543 91.44C62.9703 91.8667 63.4983 92.08 64.1383 92.08ZM79.598 91.952V95.856H77.278V94H71.23V95.856H68.91V91.952H69.262C69.7953 91.9413 70.1633 91.6267 70.366 91.008C70.5687 90.3893 70.6967 89.5093 70.75 88.368L70.862 85.392H78.366V91.952H79.598ZM73.006 88.544C72.974 89.4187 72.9047 90.1333 72.798 90.688C72.702 91.2427 72.5153 91.664 72.238 91.952H75.87V87.44H73.054L73.006 88.544ZM85.1968 88.144C86.3168 88.1547 87.1648 88.4053 87.7408 88.896C88.3168 89.3867 88.6048 90.0907 88.6048 91.008C88.6048 91.968 88.2794 92.7093 87.6288 93.232C86.9781 93.7547 86.0554 94.016 84.8608 94.016L80.6688 94V85.392H83.1488V88.144H85.1968ZM89.5328 85.392H92.0128V94H89.5328V85.392ZM84.6368 92.24C85.1168 92.2507 85.4848 92.1493 85.7408 91.936C85.9968 91.7227 86.1248 91.4027 86.1248 90.976C86.1248 90.56 85.9968 90.256 85.7408 90.064C85.4954 89.872 85.1274 89.7707 84.6368 89.76L83.1488 89.744V92.24H84.6368ZM102.319 94V88.848L99.7428 93.168H98.6868L96.1748 88.832V94H93.9188V85.392H96.5268L99.2788 90.368L102.207 85.392H104.543L104.575 94H102.319ZM114.593 94.128C113.676 94.128 112.849 93.9413 112.113 93.568C111.388 93.184 110.817 92.656 110.401 91.984C109.996 91.312 109.793 90.5493 109.793 89.696C109.793 88.8427 109.996 88.08 110.401 87.408C110.817 86.736 111.388 86.2133 112.113 85.84C112.849 85.456 113.676 85.264 114.593 85.264C115.5 85.264 116.289 85.456 116.961 85.84C117.644 86.2133 118.14 86.752 118.449 87.456L116.513 88.496C116.065 87.7067 115.42 87.312 114.577 87.312C113.926 87.312 113.388 87.5253 112.961 87.952C112.534 88.3787 112.321 88.96 112.321 89.696C112.321 90.432 112.534 91.0133 112.961 91.44C113.388 91.8667 113.926 92.08 114.577 92.08C115.43 92.08 116.076 91.6853 116.513 90.896L118.449 91.952C118.14 92.6347 117.644 93.168 116.961 93.552C116.289 93.936 115.5 94.128 114.593 94.128ZM127.724 89.728C127.724 89.76 127.708 89.984 127.676 90.4H121.164C121.282 90.9333 121.559 91.3547 121.996 91.664C122.434 91.9733 122.978 92.128 123.628 92.128C124.076 92.128 124.471 92.064 124.812 91.936C125.164 91.7973 125.49 91.584 125.788 91.296L127.116 92.736C126.306 93.664 125.122 94.128 123.564 94.128C122.594 94.128 121.735 93.9413 120.988 93.568C120.242 93.184 119.666 92.656 119.26 91.984C118.855 91.312 118.652 90.5493 118.652 89.696C118.652 88.8533 118.85 88.096 119.244 87.424C119.65 86.7413 120.199 86.2133 120.892 85.84C121.596 85.456 122.38 85.264 123.244 85.264C124.087 85.264 124.85 85.4453 125.532 85.808C126.215 86.1707 126.748 86.6933 127.132 87.376C127.527 88.048 127.724 88.832 127.724 89.728ZM123.26 87.152C122.695 87.152 122.22 87.312 121.836 87.632C121.452 87.952 121.218 88.3893 121.132 88.944H125.372C125.287 88.4 125.052 87.968 124.668 87.648C124.284 87.3173 123.815 87.152 123.26 87.152ZM137.538 94V88.848L134.962 93.168H133.906L131.394 88.832V94H129.138V85.392H131.746L134.498 90.368L137.426 85.392H139.762L139.794 94H137.538ZM146.34 88.144C147.46 88.1547 148.319 88.4107 148.916 88.912C149.514 89.4027 149.812 90.1013 149.812 91.008C149.812 91.9573 149.476 92.6987 148.804 93.232C148.143 93.7547 147.21 94.016 146.004 94.016L141.684 94V85.392H144.164V88.144H146.34ZM145.78 92.24C146.26 92.2507 146.628 92.1493 146.884 91.936C147.14 91.7227 147.268 91.4027 147.268 90.976C147.268 90.56 147.14 90.256 146.884 90.064C146.639 89.872 146.271 89.7707 145.78 89.76L144.164 89.744V92.24H145.78ZM157.926 85.392V94H155.702V91.536H153.862L152.23 94H149.574L151.542 91.184C150.945 90.9493 150.486 90.6133 150.166 90.176C149.857 89.728 149.702 89.1893 149.702 88.56C149.702 87.5467 150.065 86.768 150.79 86.224C151.526 85.6693 152.534 85.392 153.814 85.392H157.926ZM153.862 87.424C153.329 87.424 152.923 87.52 152.646 87.712C152.379 87.904 152.246 88.2133 152.246 88.64C152.246 89.0667 152.374 89.3813 152.63 89.584C152.897 89.776 153.297 89.872 153.83 89.872H155.702V87.424H153.862ZM168.225 94V88.848L165.649 93.168H164.593L162.081 88.832V94H159.825V85.392H162.433L165.185 90.368L168.113 85.392H170.449L170.481 94H168.225Z" fill="white"/>
<path d="M25.116 118H26.28L30.06 112.504C30.36 112.036 30.768 111.268 30.768 111.268H30.792C30.792 111.268 30.72 112.024 30.72 112.504V118H31.896V109.528H30.732L26.976 115.012C26.676 115.468 26.256 116.26 26.256 116.26H26.232C26.232 116.26 26.304 115.504 26.304 115.024V109.528H25.116V118ZM33.3531 118H34.5171V112.924H37.4931V118H38.6571V111.928H33.3531V118ZM39.5587 114.952C39.5587 116.8 41.0227 118.144 42.8347 118.144C44.6347 118.144 46.0987 116.8 46.0987 114.952C46.0987 113.116 44.6347 111.784 42.8227 111.784C41.0227 111.784 39.5587 113.116 39.5587 114.952ZM40.7467 114.952C40.7467 113.692 41.6827 112.792 42.8347 112.792C43.9747 112.792 44.9227 113.692 44.9227 114.952C44.9227 116.224 43.9747 117.136 42.8347 117.136C41.6827 117.136 40.7467 116.224 40.7467 114.952ZM48.2663 118H49.4183V112.924H51.5423V111.928H46.1543V112.924H48.2663V118ZM51.5899 114.964C51.5899 116.764 52.9099 118.144 54.8179 118.144C55.6579 118.144 56.5819 117.82 57.1699 117.28L56.6779 116.428C56.1979 116.86 55.5379 117.136 54.8899 117.136C53.7979 117.136 52.8619 116.428 52.8019 115.12H57.2179C57.2419 114.952 57.2659 114.784 57.2659 114.628C57.2659 113.068 56.3539 111.784 54.6379 111.784C52.9099 111.784 51.5899 113.032 51.5899 114.964ZM52.8379 114.28C53.0059 113.272 53.7139 112.684 54.6139 112.684C55.4059 112.684 56.0539 113.236 56.0899 114.28H52.8379ZM58.1656 118H59.3296V115.372H60.2056L62.0176 118H63.3976L61.1296 114.844V114.82L63.1576 111.928H61.8376L60.1816 114.376H59.3296V111.928H58.1656V118ZM63.3726 116.344C63.3726 117.484 64.3446 118.144 65.4006 118.144C66.3006 118.144 67.0446 117.604 67.3926 116.908H67.4166C67.4166 116.908 67.3806 117.112 67.3806 117.388V118H68.4726V114.16C68.4726 112.624 67.5966 111.784 66.0726 111.784C65.2206 111.784 64.2966 112.096 63.8046 112.504L64.2726 113.356C64.7646 113.008 65.3766 112.768 65.9766 112.768C66.7326 112.768 67.3086 113.104 67.3086 114.1V114.22H66.9966C65.7366 114.22 63.3726 114.436 63.3726 116.344ZM64.5366 116.248C64.5366 115.132 66.1446 115.06 67.0086 115.06H67.3086V115.288C67.3086 116.188 66.6966 117.22 65.6766 117.22C64.9206 117.22 64.5366 116.728 64.5366 116.248Z" fill="white"/>
<path d="M164.536 46.2222H164.556V36.2222C164.556 29.4722 159.083 24 152.333 24C151.173 24 150.061 24.1833 149 24.4889V58.9744C149.724 59.0967 150.463 59.1733 151.222 59.1733C158.457 59.1733 164.332 53.4078 164.536 46.2222Z" fill="#FFAC33"/>
<path d="M161.701 53.9996C161.541 53.9818 149 53.9996 149 53.9996V63.9996H165.667V58.444C165.667 56.154 163.927 54.2418 161.701 53.9996Z" fill="#9268CA"/>
<path d="M160.111 59.5557H161.222V64.0001H160.111V59.5557Z" fill="#7450A8"/>
<path d="M149 32.9092V57.5803C149.591 58.1114 150.364 58.4447 151.222 58.4447C153.063 58.4447 154.556 56.9525 154.556 55.1114V52.3081C158.438 50.9336 161.222 47.2414 161.222 42.8892V37.3125C154.644 37.0903 150.992 34.9036 149 32.9092Z" fill="#FFDC5D"/>
<path d="M149 48.4443V50.2632C149.598 50.4988 150.323 50.6666 151.222 50.6666C152.792 50.6666 153.854 50.1721 154.556 49.6499C155.341 49.0643 155.667 48.4443 155.667 48.4443H149Z" fill="#DF1F32"/>
<path d="M152.333 45.6668H150.111C149.805 45.6668 149.556 45.4179 149.556 45.1112C149.556 44.8046 149.805 44.5557 150.111 44.5557H152.333C152.64 44.5557 152.889 44.8046 152.889 45.1112C152.889 45.4179 152.64 45.6668 152.333 45.6668Z" fill="#C1694F"/>
<path d="M155.667 41.7777C155.053 41.7777 154.556 41.2799 154.556 40.6666V39.5554C154.556 38.9421 155.053 38.4443 155.667 38.4443C156.28 38.4443 156.778 38.9421 156.778 39.5554V40.6666C156.778 41.2799 156.28 41.7777 155.667 41.7777Z" fill="#662113"/>
<path d="M185.667 24C178.917 24 173.444 29.4722 173.444 36.2222C173.444 42.9722 178.917 48.4444 185.667 48.4444C186.823 48.4444 187.939 48.2733 189 47.9722V24.4722C187.939 24.1711 186.823 24 185.667 24Z" fill="#FFAC33"/>
<path d="M176.778 54C174.323 54 172.333 55.99 172.333 58.4444V64H189V54H176.778Z" fill="#4289C1"/>
<path d="M176.778 59.5557H177.889V64.0001H176.778V59.5557Z" fill="#2A6797"/>
<path d="M189 36.5336C184.3 35.2836 181.986 32.8358 180.927 31.1958C180.46 33.2002 179.329 36.4169 176.778 37.1614V42.8891C176.778 43.5436 176.846 44.1802 176.964 44.7991C177.642 48.2991 180.146 51.1391 183.444 52.3069V54.0002L186.778 59.5558L189 55.7825V36.5336Z" fill="#FFDC5D"/>
<path d="M182.333 48.4446C182.333 48.4446 182.659 49.0646 183.444 49.6501C184.144 50.1712 185.208 50.6668 186.778 50.6668C187.677 50.6668 188.402 50.499 189 50.2634V48.4446H182.333ZM187.889 45.6668H185.667C185.36 45.6668 185.111 45.4179 185.111 45.1112C185.111 44.8046 185.36 44.5557 185.667 44.5557H187.889C188.195 44.5557 188.444 44.8046 188.444 45.1112C188.444 45.4179 188.195 45.6668 187.889 45.6668Z" fill="#C1694F"/>
<path d="M182.333 41.7777C181.719 41.7777 181.222 41.2799 181.222 40.6666V39.5554C181.222 38.9421 181.719 38.4443 182.333 38.4443C182.948 38.4443 183.444 38.9421 183.444 39.5554V40.6666C183.444 41.2799 182.948 41.7777 182.333 41.7777Z" fill="#662113"/>
<path d="M178.488 29.2344C178.488 26.3433 176.143 24 173.253 24C171.499 24 169.95 24.8667 169 26.1911C168.049 24.8667 166.5 24 164.747 24C161.857 24 159.512 26.3433 159.512 29.2344C159.512 29.6444 159.564 30.0422 159.653 30.4233C160.38 34.94 165.401 39.7044 168.999 41.0111C172.597 39.7033 177.619 34.9389 178.346 30.4244C178.436 30.0422 178.488 29.6444 178.488 29.2344Z" fill="#DD2E44"/>
</g>
<defs>
<linearGradient id="paint0_linear" x1="108" y1="0" x2="108" y2="145" gradientUnits="userSpaceOnUse">
<stop stop-color="#8B7AFF"/>
<stop offset="1" stop-color="#6C5DD3" stop-opacity="0"/>
</linearGradient>
<radialGradient id="paint1_radial" cx="0" cy="0" r="1" gradientUnits="userSpaceOnUse" gradientTransform="translate(167 40) rotate(90) scale(124)">
<stop stop-color="white"/>
<stop offset="1" stop-color="white" stop-opacity="0"/>
</radialGradient>
<clipPath id="clip0">
<rect width="216" height="145" fill="white"/>
</clipPath>
</defs>
</svg>
