<svg width="216" height="145" viewBox="0 0 216 145" fill="none" xmlns="http://www.w3.org/2000/svg">
<g clip-path="url(#clip0)">
<g style="mix-blend-mode:multiply">
<rect width="216" height="145" rx="10" fill="#2F80ED"/>
</g>
<rect width="216" height="145" rx="10" fill="url(#paint0_linear)"/>
<circle cx="166" cy="51" r="127" fill="url(#paint1_radial)" fill-opacity="0.4"/>
<path d="M25.116 102H28.224C29.7 102 30.744 100.992 30.744 99.48C30.744 97.848 29.652 96.924 28.164 96.924H26.304V94.56H30.12V93.528H25.116V102ZM26.304 100.968V97.956H28.008C28.944 97.956 29.544 98.544 29.544 99.48C29.544 100.404 28.98 100.968 28.032 100.968H26.304ZM31.2696 98.952C31.2696 100.8 32.7336 102.144 34.5456 102.144C36.3456 102.144 37.8096 100.8 37.8096 98.952C37.8096 97.116 36.3456 95.784 34.5336 95.784C32.7336 95.784 31.2696 97.116 31.2696 98.952ZM32.4576 98.952C32.4576 97.692 33.3936 96.792 34.5456 96.792C35.6856 96.792 36.6336 97.692 36.6336 98.952C36.6336 100.224 35.6856 101.136 34.5456 101.136C33.3936 101.136 32.4576 100.224 32.4576 98.952ZM38.7125 102H39.8765V99.396H42.9485V102H44.1125V95.928H42.9485V98.4H39.8765V95.928H38.7125V102ZM45.1078 103.26L44.6998 104.148C44.6998 104.148 45.1918 104.52 45.8638 104.52C46.7158 104.52 47.4718 104.04 47.8318 103.092L50.6878 95.928H49.4278L47.9518 99.912C47.8438 100.224 47.7478 100.632 47.7478 100.632H47.7238C47.7238 100.632 47.6158 100.2 47.4958 99.9L45.9718 95.928H44.6638L47.2078 101.928L46.9078 102.624C46.6798 103.176 46.2838 103.524 45.8038 103.524C45.4438 103.524 45.1078 103.26 45.1078 103.26ZM50.7228 98.964C50.7228 100.788 52.0548 102.144 53.9748 102.144C54.9228 102.144 55.8468 101.76 56.3988 101.172L55.9308 100.32C55.4628 100.812 54.7308 101.136 54.0588 101.136C52.7988 101.136 51.9108 100.188 51.9108 98.952C51.9108 97.716 52.7988 96.792 54.0228 96.792C54.6588 96.792 55.2948 97.08 55.7028 97.488L56.2548 96.672C55.6788 96.06 54.7788 95.784 53.9748 95.784C52.0668 95.784 50.7228 97.164 50.7228 98.964ZM57.1578 102H58.3218V99.396H61.3938V102H62.5578V95.928H61.3938V98.4H58.3218V95.928H57.1578V102ZM69.3491 102H70.5131V95.928H69.3491V102ZM63.8531 102H66.1931C67.7171 102 68.4131 101.22 68.4131 100.08C68.4131 98.7 67.4651 98.124 66.2051 98.124H65.0171V95.928H63.8531V102ZM65.0171 101.16V98.964H66.0251C66.8651 98.964 67.2371 99.42 67.2371 100.068C67.2371 100.704 66.8771 101.16 66.0371 101.16H65.0171ZM71.4181 98.964C71.4181 100.764 72.7381 102.144 74.6461 102.144C75.4861 102.144 76.4101 101.82 76.9981 101.28L76.5061 100.428C76.0261 100.86 75.3661 101.136 74.7181 101.136C73.6261 101.136 72.6901 100.428 72.6301 99.12H77.0461C77.0701 98.952 77.0941 98.784 77.0941 98.628C77.0941 97.068 76.1821 95.784 74.4661 95.784C72.7381 95.784 71.4181 97.032 71.4181 98.964ZM72.6661 98.28C72.8341 97.272 73.5421 96.684 74.4421 96.684C75.2341 96.684 75.8821 97.236 75.9181 98.28H72.6661ZM80.2418 102H81.3698L81.6338 98.388C81.6578 98.028 81.6218 97.344 81.6218 97.344H81.6458C81.6458 97.344 81.8378 97.8 82.0298 98.244L83.4698 101.268H84.4658L85.9058 98.232C86.1338 97.764 86.2898 97.344 86.2898 97.344H86.3138C86.3138 97.344 86.2898 98.028 86.3018 98.388L86.5658 102H87.6938L87.1658 95.928H85.8938L84.3098 99.36C84.1538 99.732 83.9738 100.176 83.9738 100.176H83.9498C83.9498 100.176 83.7818 99.72 83.6138 99.36L82.0658 95.928H80.7698L80.2418 102ZM88.7594 102H89.8754L92.5034 98.376C92.6954 98.088 92.9954 97.68 93.0314 97.572H93.0554C93.0554 97.668 93.0194 98.088 93.0194 98.376V102H94.1474V95.928H93.0194L90.4034 99.552C90.1994 99.84 89.9114 100.26 89.8634 100.368H89.8394C89.8514 100.308 89.8754 99.876 89.8754 99.552V95.928H88.7594V102ZM94.7713 102.06C96.5593 101.964 97.2553 100.548 97.2553 97.8V96.888H99.0433V102H100.207V95.928H96.1393V97.8C96.1393 99.996 95.6593 100.884 94.7713 101.016V102.06ZM101.505 102H102.621L105.249 98.376C105.441 98.088 105.741 97.68 105.777 97.572H105.801C105.801 97.668 105.765 98.088 105.765 98.376V102H106.893V95.928H105.765L103.149 99.552C102.945 99.84 102.657 100.26 102.609 100.368H102.585C102.597 100.308 102.621 99.876 102.621 99.552V95.928H101.505V102ZM107.697 103.212H108.621L109.665 100.74H108.441L107.697 103.212ZM113.051 98.964C113.051 100.788 114.383 102.144 116.303 102.144C117.251 102.144 118.175 101.76 118.727 101.172L118.259 100.32C117.791 100.812 117.059 101.136 116.387 101.136C115.127 101.136 114.239 100.188 114.239 98.952C114.239 97.716 115.127 96.792 116.351 96.792C116.987 96.792 117.623 97.08 118.031 97.488L118.583 96.672C118.007 96.06 117.107 95.784 116.303 95.784C114.395 95.784 113.051 97.164 113.051 98.964ZM120.95 102H122.102V96.924H124.226V95.928H118.838V96.924H120.95V102ZM124.869 104.4H126.033V101.64C126.033 101.328 125.985 101.112 125.985 101.112H126.009C126.429 101.76 127.125 102.144 127.893 102.144C129.489 102.144 130.641 100.896 130.641 98.964C130.641 97.08 129.621 95.784 127.977 95.784C127.089 95.784 126.321 96.192 125.937 96.924H125.913C125.913 96.924 125.949 96.72 125.949 96.468V95.928H124.869V104.4ZM125.997 98.988C125.997 97.452 126.837 96.804 127.749 96.804C128.757 96.804 129.465 97.656 129.465 98.976C129.465 100.356 128.673 101.136 127.713 101.136C126.597 101.136 125.997 100.068 125.997 98.988ZM131.072 100.344C131.072 101.484 132.044 102.144 133.1 102.144C134 102.144 134.744 101.604 135.092 100.908H135.116C135.116 100.908 135.08 101.112 135.08 101.388V102H136.172V98.16C136.172 96.624 135.296 95.784 133.772 95.784C132.92 95.784 131.996 96.096 131.504 96.504L131.972 97.356C132.464 97.008 133.076 96.768 133.676 96.768C134.432 96.768 135.008 97.104 135.008 98.1V98.22H134.696C133.436 98.22 131.072 98.436 131.072 100.344ZM132.236 100.248C132.236 99.132 133.844 99.06 134.708 99.06H135.008V99.288C135.008 100.188 134.396 101.22 133.376 101.22C132.62 101.22 132.236 100.728 132.236 100.248ZM136.696 102H138.016L139.288 99.972C139.384 99.828 139.468 99.648 139.468 99.648H139.492C139.492 99.648 139.588 99.828 139.684 99.972L140.956 102H142.276L140.2 98.88L142.156 95.928H140.824L139.696 97.776C139.612 97.932 139.492 98.136 139.492 98.136H139.468C139.468 98.136 139.36 97.932 139.276 97.776L138.148 95.928H136.816L138.772 98.88L136.696 102ZM142.285 98.952C142.285 100.8 143.749 102.144 145.561 102.144C147.361 102.144 148.825 100.8 148.825 98.952C148.825 97.116 147.361 95.784 145.549 95.784C143.749 95.784 142.285 97.116 142.285 98.952ZM143.473 98.952C143.473 97.692 144.409 96.792 145.561 96.792C146.701 96.792 147.649 97.692 147.649 98.952C147.649 100.224 146.701 101.136 145.561 101.136C144.409 101.136 143.473 100.224 143.473 98.952ZM149.728 102H152.32C153.64 102 154.552 101.4 154.552 100.272C154.552 99.6 154.156 99.012 153.4 98.832V98.82C153.952 98.58 154.264 98.076 154.264 97.488C154.264 96.468 153.46 95.928 152.236 95.928H149.728V102ZM150.892 98.496V96.732H151.996C152.728 96.732 153.076 97.02 153.076 97.572C153.076 98.136 152.728 98.496 152.032 98.496H150.892ZM150.892 101.184V99.276H152.128C152.932 99.276 153.376 99.636 153.376 100.236C153.376 100.8 152.98 101.184 152.14 101.184H150.892ZM155.463 102H156.627V99.372H157.503L159.315 102H160.695L158.427 98.844V98.82L160.455 95.928H159.135L157.479 98.376H156.627V95.928H155.463V102ZM160.669 100.344C160.669 101.484 161.641 102.144 162.697 102.144C163.597 102.144 164.341 101.604 164.689 100.908H164.713C164.713 100.908 164.677 101.112 164.677 101.388V102H165.769V98.16C165.769 96.624 164.893 95.784 163.369 95.784C162.517 95.784 161.593 96.096 161.101 96.504L161.569 97.356C162.061 97.008 162.673 96.768 163.273 96.768C164.029 96.768 164.605 97.104 164.605 98.1V98.22H164.293C163.033 98.22 160.669 98.436 160.669 100.344ZM161.833 100.248C161.833 99.132 163.441 99.06 164.305 99.06H164.605V99.288C164.605 100.188 163.993 101.22 162.973 101.22C162.217 101.22 161.833 100.728 161.833 100.248ZM170.678 101.04C171.446 99.84 171.542 98.112 171.542 97.2V96.876H173.366V101.04H170.678ZM168.734 101.04V103.44H169.826V102H174.326V103.44H175.394V101.04H174.53V95.928H170.426V97.044C170.426 97.98 170.33 99.876 169.478 101.04H168.734ZM175.455 102.06C177.243 101.964 177.939 100.548 177.939 97.8V96.888H179.727V102H180.891V95.928H176.823V97.8C176.823 99.996 176.343 100.884 175.455 101.016V102.06ZM181.577 102H182.861L184.349 99.804H185.369V102H186.533V95.928H184.109C182.825 95.928 181.937 96.588 181.937 97.836C181.937 98.76 182.561 99.408 183.257 99.6V99.612C183.257 99.612 183.113 99.768 182.981 99.984L181.577 102ZM184.361 98.952C183.653 98.952 183.113 98.58 183.113 97.824C183.113 97.044 183.617 96.732 184.397 96.732H185.369V98.952H184.361ZM26.364 118H27.516V112.924H29.64V111.928H24.252V112.924H26.364V118ZM29.9828 119.26L29.5748 120.148C29.5748 120.148 30.0668 120.52 30.7388 120.52C31.5908 120.52 32.3468 120.04 32.7068 119.092L35.5628 111.928H34.3028L32.8268 115.912C32.7188 116.224 32.6228 116.632 32.6228 116.632H32.5988C32.5988 116.632 32.4908 116.2 32.3708 115.9L30.8468 111.928H29.5388L32.0828 117.928L31.7828 118.624C31.5548 119.176 31.1588 119.524 30.6788 119.524C30.3188 119.524 29.9828 119.26 29.9828 119.26ZM36.2047 120.4H37.3687V117.64C37.3687 117.328 37.3207 117.112 37.3207 117.112H37.3447C37.7647 117.76 38.4607 118.144 39.2287 118.144C40.8247 118.144 41.9767 116.896 41.9767 114.964C41.9767 113.08 40.9567 111.784 39.3127 111.784C38.4247 111.784 37.6567 112.192 37.2727 112.924H37.2487C37.2487 112.924 37.2847 112.72 37.2847 112.468V111.928H36.2047V120.4ZM37.3327 114.988C37.3327 113.452 38.1727 112.804 39.0847 112.804C40.0927 112.804 40.8007 113.656 40.8007 114.976C40.8007 116.356 40.0087 117.136 39.0487 117.136C37.9327 117.136 37.3327 116.068 37.3327 114.988ZM42.9117 118H44.0277L46.6557 114.376C46.8477 114.088 47.1477 113.68 47.1837 113.572H47.2077C47.2077 113.668 47.1717 114.088 47.1717 114.376V118H48.2997V111.928H47.1717L44.5557 115.552C44.3517 115.84 44.0637 116.26 44.0157 116.368H43.9917C44.0037 116.308 44.0277 115.876 44.0277 115.552V111.928H42.9117V118ZM49.1876 114.964C49.1876 116.788 50.5196 118.144 52.4396 118.144C53.3876 118.144 54.3116 117.76 54.8636 117.172L54.3956 116.32C53.9276 116.812 53.1956 117.136 52.5236 117.136C51.2636 117.136 50.3756 116.188 50.3756 114.952C50.3756 113.716 51.2636 112.792 52.4876 112.792C53.1236 112.792 53.7596 113.08 54.1676 113.488L54.7196 112.672C54.1436 112.06 53.2436 111.784 52.4396 111.784C50.5316 111.784 49.1876 113.164 49.1876 114.964ZM57.0867 118H58.2387V112.924H60.3627V111.928H54.9747V112.924H57.0867V118ZM60.4103 114.952C60.4103 116.8 61.8743 118.144 63.6863 118.144C65.4863 118.144 66.9503 116.8 66.9503 114.952C66.9503 113.116 65.4863 111.784 63.6743 111.784C61.8743 111.784 60.4103 113.116 60.4103 114.952ZM61.5983 114.952C61.5983 113.692 62.5343 112.792 63.6863 112.792C64.8263 112.792 65.7743 113.692 65.7743 114.952C65.7743 116.224 64.8263 117.136 63.6863 117.136C62.5343 117.136 61.5983 116.224 61.5983 114.952ZM67.8531 118H70.4451C71.7651 118 72.6771 117.4 72.6771 116.272C72.6771 115.6 72.2811 115.012 71.5251 114.832V114.82C72.0771 114.58 72.3891 114.076 72.3891 113.488C72.3891 112.468 71.5851 111.928 70.3611 111.928H67.8531V118ZM69.0171 114.496V112.732H70.1211C70.8531 112.732 71.2011 113.02 71.2011 113.572C71.2011 114.136 70.8531 114.496 70.1571 114.496H69.0171ZM69.0171 117.184V115.276H70.2531C71.0571 115.276 71.5011 115.636 71.5011 116.236C71.5011 116.8 71.1051 117.184 70.2651 117.184H69.0171Z" fill="white"/>
<path d="M33.952 68.912H30.368V78H27.808V68.912H24.24V66.8H33.952V68.912ZM42.9959 69.392L39.1079 78.528C38.7132 79.52 38.2225 80.2187 37.6359 80.624C37.0599 81.0293 36.3612 81.232 35.5399 81.232C35.0919 81.232 34.6492 81.1627 34.2119 81.024C33.7745 80.8853 33.4172 80.6933 33.1399 80.448L34.0519 78.672C34.2439 78.8427 34.4625 78.976 34.7079 79.072C34.9639 79.168 35.2145 79.216 35.4599 79.216C35.8012 79.216 36.0785 79.1307 36.2919 78.96C36.5052 78.8 36.6972 78.528 36.8679 78.144L36.8999 78.064L33.1719 69.392H35.7479L38.1639 75.232L40.5959 69.392H42.9959ZM48.772 69.264C49.572 69.264 50.2973 69.4507 50.948 69.824C51.6093 70.1867 52.1267 70.704 52.5 71.376C52.8733 72.0373 53.06 72.8107 53.06 73.696C53.06 74.5813 52.8733 75.36 52.5 76.032C52.1267 76.6933 51.6093 77.2107 50.948 77.584C50.2973 77.9467 49.572 78.128 48.772 78.128C47.6733 78.128 46.8093 77.7813 46.18 77.088V81.104H43.684V69.392H46.068V70.384C46.6867 69.6373 47.588 69.264 48.772 69.264ZM48.34 76.08C48.98 76.08 49.5027 75.8667 49.908 75.44C50.324 75.0027 50.532 74.4213 50.532 73.696C50.532 72.9707 50.324 72.3947 49.908 71.968C49.5027 71.5307 48.98 71.312 48.34 71.312C47.7 71.312 47.172 71.5307 46.756 71.968C46.3507 72.3947 46.148 72.9707 46.148 73.696C46.148 74.4213 46.3507 75.0027 46.756 75.44C47.172 75.8667 47.7 76.08 48.34 76.08ZM54.3094 69.392H56.7894V74.512L60.9814 69.392H63.2694V78H60.7894V72.88L56.6134 78H54.3094V69.392ZM69.2648 78.128C68.3474 78.128 67.5208 77.9413 66.7848 77.568C66.0594 77.184 65.4888 76.656 65.0728 75.984C64.6674 75.312 64.4648 74.5493 64.4648 73.696C64.4648 72.8427 64.6674 72.08 65.0728 71.408C65.4888 70.736 66.0594 70.2133 66.7848 69.84C67.5208 69.456 68.3474 69.264 69.2648 69.264C70.1714 69.264 70.9608 69.456 71.6328 69.84C72.3154 70.2133 72.8114 70.752 73.1208 71.456L71.1848 72.496C70.7368 71.7067 70.0914 71.312 69.2488 71.312C68.5981 71.312 68.0594 71.5253 67.6328 71.952C67.2061 72.3787 66.9928 72.96 66.9928 73.696C66.9928 74.432 67.2061 75.0133 67.6328 75.44C68.0594 75.8667 68.5981 76.08 69.2488 76.08C70.1021 76.08 70.7474 75.6853 71.1848 74.896L73.1208 75.952C72.8114 76.6347 72.3154 77.168 71.6328 77.552C70.9608 77.936 70.1714 78.128 69.2648 78.128ZM81.3383 71.44H78.4263V78H75.9463V71.44H73.0343V69.392H81.3383V71.44ZM85.5128 69.264C86.8461 69.264 87.8701 69.584 88.5848 70.224C89.2994 70.8533 89.6568 71.808 89.6568 73.088V78H87.3208V76.928C86.8514 77.728 85.9768 78.128 84.6968 78.128C84.0354 78.128 83.4594 78.016 82.9688 77.792C82.4888 77.568 82.1208 77.2587 81.8648 76.864C81.6088 76.4693 81.4808 76.0213 81.4808 75.52C81.4808 74.72 81.7794 74.0907 82.3768 73.632C82.9848 73.1733 83.9181 72.944 85.1768 72.944H87.1608C87.1608 72.4 86.9954 71.984 86.6648 71.696C86.3341 71.3973 85.8381 71.248 85.1768 71.248C84.7181 71.248 84.2648 71.3227 83.8168 71.472C83.3794 71.6107 83.0061 71.8027 82.6968 72.048L81.8008 70.304C82.2701 69.9733 82.8301 69.7173 83.4808 69.536C84.1421 69.3547 84.8194 69.264 85.5128 69.264ZM85.3208 76.448C85.7474 76.448 86.1261 76.352 86.4568 76.16C86.7874 75.9573 87.0221 75.664 87.1608 75.28V74.4H85.4488C84.4248 74.4 83.9128 74.736 83.9128 75.408C83.9128 75.728 84.0354 75.984 84.2808 76.176C84.5368 76.3573 84.8834 76.448 85.3208 76.448ZM99.725 78V72.848L97.149 77.168H96.093L93.581 72.832V78H91.325V69.392H93.933L96.685 74.368L99.613 69.392H101.949L101.981 78H99.725Z" fill="white"/>
<path d="M172 58C183.046 58 192 49.0457 192 38C192 26.9543 183.046 18 172 18C160.954 18 152 26.9543 152 38C152 49.0457 160.954 58 172 58Z" fill="#F4900C"/>
<path d="M172 54.1109C180.898 54.1109 188.111 46.8977 188.111 37.9998C188.111 29.1019 180.898 21.8887 172 21.8887C163.102 21.8887 155.889 29.1019 155.889 37.9998C155.889 46.8977 163.102 54.1109 172 54.1109Z" fill="#FFD983"/>
<path d="M172 52.4446C179.978 52.4446 186.445 45.9776 186.445 38.0001C186.445 30.0227 179.978 23.5557 172 23.5557C164.023 23.5557 157.556 30.0227 157.556 38.0001C157.556 45.9776 164.023 52.4446 172 52.4446Z" fill="#F5F8FA"/>
<path d="M172 26.8887L173.701 33.8931L179.857 30.1431L176.107 36.2987L183.111 37.9998L176.107 39.7009L179.857 45.8564L173.701 42.1064L172 49.1109L170.299 42.1064L164.143 45.8564L167.893 39.7009L160.889 37.9998L167.893 36.2987L164.143 30.1431L170.299 33.8931L172 26.8887Z" fill="#CCD6DD"/>
<path d="M171.27 41.0533L181.022 47.0321L175.046 37.2788L171.27 41.0533Z" fill="#292F33"/>
<path d="M172.73 34.9638L162.977 28.9849L168.954 38.7393L172.73 34.9638Z" fill="#DD2E44"/>
<path d="M172 41.4036C173.875 41.4036 175.395 39.8839 175.395 38.0092C175.395 36.1345 173.875 34.6147 172 34.6147C170.125 34.6147 168.606 36.1345 168.606 38.0092C168.606 39.8839 170.125 41.4036 172 41.4036Z" fill="#8899A6"/>
<path d="M172 39.84C173.011 39.84 173.831 39.0201 173.831 38.0088C173.831 36.9975 173.011 36.1777 172 36.1777C170.989 36.1777 170.169 36.9975 170.169 38.0088C170.169 39.0201 170.989 39.84 172 39.84Z" fill="#F5F8FA"/>
</g>
<defs>
<linearGradient id="paint0_linear" x1="108" y1="0" x2="108" y2="145" gradientUnits="userSpaceOnUse">
<stop stop-color="#4BA7E9"/>
<stop offset="1" stop-color="#4BA7E9" stop-opacity="0"/>
</linearGradient>
<radialGradient id="paint1_radial" cx="0" cy="0" r="1" gradientUnits="userSpaceOnUse" gradientTransform="translate(166 51) rotate(90) scale(127)">
<stop stop-color="white"/>
<stop offset="1" stop-color="white" stop-opacity="0"/>
</radialGradient>
<clipPath id="clip0">
<rect width="216" height="145" fill="white"/>
</clipPath>
</defs>
</svg>
