<svg width="216" height="145" viewBox="0 0 216 145" fill="none" xmlns="http://www.w3.org/2000/svg">
<g clip-path="url(#clip0)">
<g style="mix-blend-mode:multiply">
<rect width="216" height="145" rx="10" fill="#FAAF23"/>
</g>
<rect width="216" height="145" rx="10" fill="url(#paint0_linear)"/>
<circle cx="167" cy="40" r="124" fill="url(#paint1_radial)" fill-opacity="0.4"/>
<path d="M32.976 75.6H27.776L26.784 78H24.128L29.12 66.8H31.68L36.688 78H33.968L32.976 75.6ZM32.16 73.632L30.384 69.344L28.608 73.632H32.16ZM44.0573 73.504C45.0706 73.8453 45.5773 74.528 45.5773 75.552C45.5773 76.3307 45.2839 76.9333 44.6973 77.36C44.1106 77.7867 43.2359 78 42.0733 78H37.4813V69.392H41.8813C42.9586 69.392 43.8013 69.5893 44.4093 69.984C45.0173 70.368 45.3212 70.912 45.3212 71.616C45.3212 72.0427 45.2093 72.4213 44.9853 72.752C44.7719 73.072 44.4626 73.3227 44.0573 73.504ZM39.7693 72.928H41.6573C42.5319 72.928 42.9693 72.6187 42.9693 72C42.9693 71.392 42.5319 71.088 41.6573 71.088H39.7693V72.928ZM41.8653 76.304C42.7826 76.304 43.2413 75.9893 43.2413 75.36C43.2413 75.0293 43.1346 74.7893 42.9213 74.64C42.7079 74.48 42.3719 74.4 41.9133 74.4H39.7693V76.304H41.8653ZM54.1664 71.44H51.2544V78H48.7744V71.44H45.8624V69.392H54.1664V71.44ZM58.6695 78.128C57.7628 78.128 56.9468 77.9413 56.2215 77.568C55.5068 77.184 54.9468 76.656 54.5415 75.984C54.1362 75.312 53.9335 74.5493 53.9335 73.696C53.9335 72.8427 54.1362 72.08 54.5415 71.408C54.9468 70.736 55.5068 70.2133 56.2215 69.84C56.9468 69.456 57.7628 69.264 58.6695 69.264C59.5762 69.264 60.3868 69.456 61.1015 69.84C61.8162 70.2133 62.3762 70.736 62.7815 71.408C63.1868 72.08 63.3895 72.8427 63.3895 73.696C63.3895 74.5493 63.1868 75.312 62.7815 75.984C62.3762 76.656 61.8162 77.184 61.1015 77.568C60.3868 77.9413 59.5762 78.128 58.6695 78.128ZM58.6695 76.08C59.3095 76.08 59.8322 75.8667 60.2375 75.44C60.6535 75.0027 60.8615 74.4213 60.8615 73.696C60.8615 72.9707 60.6535 72.3947 60.2375 71.968C59.8322 71.5307 59.3095 71.312 58.6695 71.312C58.0295 71.312 57.5015 71.5307 57.0855 71.968C56.6695 72.3947 56.4615 72.9707 56.4615 73.696C56.4615 74.4213 56.6695 75.0027 57.0855 75.44C57.5015 75.8667 58.0295 76.08 58.6695 76.08ZM72.7373 69.392V78H70.2413V71.44H67.5213L67.4413 72.96C67.3986 74.0907 67.2919 75.0293 67.1213 75.776C66.9506 76.5227 66.6733 77.1093 66.2893 77.536C65.9053 77.9627 65.3719 78.176 64.6893 78.176C64.3266 78.176 63.8946 78.112 63.3933 77.984L63.5213 75.936C63.6919 75.9573 63.8146 75.968 63.8893 75.968C64.2626 75.968 64.5399 75.8347 64.7213 75.568C64.9133 75.2907 65.0413 74.944 65.1053 74.528C65.1693 74.1013 65.2173 73.5413 65.2493 72.848L65.3773 69.392H72.7373ZM82.7815 69.264C83.6562 69.264 84.4402 69.456 85.1335 69.84C85.8268 70.2133 86.3708 70.736 86.7655 71.408C87.1602 72.08 87.3575 72.8427 87.3575 73.696C87.3575 74.5493 87.1602 75.312 86.7655 75.984C86.3708 76.656 85.8268 77.184 85.1335 77.568C84.4402 77.9413 83.6562 78.128 82.7815 78.128C82.0242 78.128 81.3308 77.9893 80.7015 77.712C80.0722 77.424 79.5495 77.024 79.1335 76.512C78.7175 75.9893 78.4402 75.392 78.3015 74.72H77.1175V78H74.6375V69.392H77.1175V72.56H78.3175C78.5628 71.5573 79.0855 70.7573 79.8855 70.16C80.6855 69.5627 81.6508 69.264 82.7815 69.264ZM82.7815 76.08C83.3895 76.08 83.8908 75.8667 84.2855 75.44C84.6908 75.0027 84.8935 74.4213 84.8935 73.696C84.8935 72.96 84.6908 72.3787 84.2855 71.952C83.8908 71.5253 83.3895 71.312 82.7815 71.312C82.1628 71.312 81.6508 71.5253 81.2455 71.952C80.8508 72.3787 80.6535 72.96 80.6535 73.696C80.6535 74.4213 80.8508 75.0027 81.2455 75.44C81.6508 75.8667 82.1628 76.08 82.7815 76.08ZM93.5666 69.984C94.388 69.984 95.108 70.1547 95.7266 70.496C96.3453 70.8267 96.82 71.296 97.1506 71.904C97.492 72.512 97.6626 73.216 97.6626 74.016C97.6626 74.8373 97.46 75.568 97.0546 76.208C96.66 76.8373 96.1053 77.328 95.3906 77.68C94.676 78.0213 93.8653 78.192 92.9586 78.192C91.4546 78.192 90.2706 77.712 89.4066 76.752C88.5533 75.7813 88.1266 74.3627 88.1266 72.496C88.1266 70.768 88.5 69.392 89.2466 68.368C90.004 67.3333 91.1613 66.656 92.7186 66.336L96.8146 65.52L97.1506 67.664L93.5346 68.384C92.5533 68.576 91.8226 68.896 91.3426 69.344C90.8733 69.792 90.596 70.4267 90.5106 71.248C90.884 70.8427 91.332 70.5333 91.8546 70.32C92.3773 70.096 92.948 69.984 93.5666 69.984ZM92.9746 76.256C93.6146 76.256 94.1266 76.048 94.5106 75.632C94.9053 75.216 95.1026 74.688 95.1026 74.048C95.1026 73.3973 94.9053 72.88 94.5106 72.496C94.1266 72.112 93.6146 71.92 92.9746 71.92C92.324 71.92 91.8013 72.112 91.4066 72.496C91.012 72.88 90.8146 73.3973 90.8146 74.048C90.8146 74.6987 91.0173 75.232 91.4226 75.648C91.828 76.0533 92.3453 76.256 92.9746 76.256ZM98.8563 69.392H101.336V74.512L105.528 69.392H107.816V78H105.336V72.88L101.16 78H98.8563V69.392ZM116.948 71.44H114.036V78H111.556V71.44H108.644V69.392H116.948V71.44ZM125.787 73.728C125.787 73.76 125.771 73.984 125.739 74.4H119.227C119.344 74.9333 119.621 75.3547 120.059 75.664C120.496 75.9733 121.04 76.128 121.691 76.128C122.139 76.128 122.533 76.064 122.875 75.936C123.227 75.7973 123.552 75.584 123.851 75.296L125.179 76.736C124.368 77.664 123.184 78.128 121.627 78.128C120.656 78.128 119.797 77.9413 119.051 77.568C118.304 77.184 117.728 76.656 117.323 75.984C116.917 75.312 116.715 74.5493 116.715 73.696C116.715 72.8533 116.912 72.096 117.307 71.424C117.712 70.7413 118.261 70.2133 118.955 69.84C119.659 69.456 120.443 69.264 121.307 69.264C122.149 69.264 122.912 69.4453 123.595 69.808C124.277 70.1707 124.811 70.6933 125.195 71.376C125.589 72.048 125.787 72.832 125.787 73.728ZM121.323 71.152C120.757 71.152 120.283 71.312 119.899 71.632C119.515 71.952 119.28 72.3893 119.195 72.944H123.435C123.349 72.4 123.115 71.968 122.731 71.648C122.347 71.3173 121.877 71.152 121.323 71.152ZM135.378 69.392V78H132.882V71.44H130.162L130.082 72.96C130.039 74.0907 129.933 75.0293 129.762 75.776C129.591 76.5227 129.314 77.1093 128.93 77.536C128.546 77.9627 128.013 78.176 127.33 78.176C126.967 78.176 126.535 78.112 126.034 77.984L126.162 75.936C126.333 75.9573 126.455 75.968 126.53 75.968C126.903 75.968 127.181 75.8347 127.362 75.568C127.554 75.2907 127.682 74.944 127.746 74.528C127.81 74.1013 127.858 73.5413 127.89 72.848L128.018 69.392H135.378ZM144.926 69.392V78H142.702V75.536H140.862L139.23 78H136.574L138.542 75.184C137.945 74.9493 137.486 74.6133 137.166 74.176C136.857 73.728 136.702 73.1893 136.702 72.56C136.702 71.5467 137.065 70.768 137.79 70.224C138.526 69.6693 139.534 69.392 140.814 69.392H144.926ZM140.862 71.424C140.329 71.424 139.923 71.52 139.646 71.712C139.379 71.904 139.246 72.2133 139.246 72.64C139.246 73.0667 139.374 73.3813 139.63 73.584C139.897 73.776 140.297 73.872 140.83 73.872H142.702V71.424H140.862ZM155.225 78V72.848L152.649 77.168H151.593L149.081 72.832V78H146.825V69.392H149.433L152.185 74.368L155.113 69.392H157.449L157.481 78H155.225Z" fill="white"/>
<path d="M25.116 102H26.304V98.124H27.564L29.82 102H31.176L28.548 97.572V97.548L31.02 93.528H29.712L27.564 97.092H26.304V93.528H25.116V102ZM31.2311 101.232C31.8671 101.844 32.7671 102.144 33.6431 102.144C35.5511 102.144 36.8831 100.788 36.8831 98.964C36.8831 97.164 35.5631 95.784 33.6671 95.784C32.8151 95.784 31.8911 96.06 31.3511 96.636L31.8791 97.44C32.3471 96.996 32.9591 96.732 33.6311 96.732C34.7111 96.732 35.5871 97.44 35.7431 98.544H32.8391V99.384H35.7431C35.5871 100.452 34.7231 101.184 33.5951 101.184C32.9351 101.184 32.2151 100.944 31.6871 100.404L31.2311 101.232ZM37.7984 102H45.6464V95.928H44.5304V100.992H42.2864V95.928H41.1584V100.992H38.9144V95.928H37.7984V102ZM46.679 98.508C46.679 100.608 47.603 102.144 49.655 102.144C51.371 102.144 52.523 100.944 52.523 99.264C52.523 97.548 51.467 96.468 49.943 96.468C49.139 96.468 48.335 96.732 47.795 97.548H47.771C47.855 96.384 48.431 95.676 49.643 95.124L51.971 94.152L51.587 93.192L49.415 94.128C47.303 95.016 46.679 96.336 46.679 98.508ZM47.891 99.264C47.891 98.196 48.623 97.392 49.655 97.392C50.567 97.392 51.347 98.1 51.347 99.288C51.347 100.464 50.567 101.16 49.607 101.16C48.671 101.16 47.891 100.464 47.891 99.264ZM52.8053 101.232C53.4413 101.844 54.3413 102.144 55.2173 102.144C57.1253 102.144 58.4573 100.788 58.4573 98.964C58.4573 97.164 57.1373 95.784 55.2413 95.784C54.3893 95.784 53.4653 96.06 52.9253 96.636L53.4533 97.44C53.9213 96.996 54.5333 96.732 55.2053 96.732C56.2853 96.732 57.1613 97.44 57.3173 98.544H54.4133V99.384H57.3173C57.1613 100.452 56.2973 101.184 55.1693 101.184C54.5093 101.184 53.7893 100.944 53.2613 100.404L52.8053 101.232ZM59.3727 102H60.5367V99.372H61.4127L63.2247 102H64.6047L62.3367 98.844V98.82L64.3647 95.928H63.0447L61.3887 98.376H60.5367V95.928H59.3727V102ZM67.6422 102H68.8062V99.396H71.8782V102H73.0422V95.928H71.8782V98.4H68.8062V95.928H67.6422V102ZM73.8335 100.344C73.8335 101.484 74.8055 102.144 75.8615 102.144C76.7615 102.144 77.5055 101.604 77.8535 100.908H77.8775C77.8775 100.908 77.8415 101.112 77.8415 101.388V102H78.9335V98.16C78.9335 96.624 78.0575 95.784 76.5335 95.784C75.6815 95.784 74.7575 96.096 74.2655 96.504L74.7335 97.356C75.2255 97.008 75.8375 96.768 76.4375 96.768C77.1935 96.768 77.7695 97.104 77.7695 98.1V98.22H77.4575C76.1975 98.22 73.8335 98.436 73.8335 100.344ZM74.9975 100.248C74.9975 99.132 76.6055 99.06 77.4695 99.06H77.7695V99.288C77.7695 100.188 77.1575 101.22 76.1375 101.22C75.3815 101.22 74.9975 100.728 74.9975 100.248ZM82.0659 101.256C82.5699 101.736 83.3619 102.144 84.2979 102.144C85.5459 102.144 86.6259 101.508 86.6259 100.26C86.6259 99.48 86.1459 99.024 85.5339 98.832V98.808C86.0139 98.604 86.4219 98.184 86.4219 97.428C86.4219 96.348 85.5219 95.784 84.3699 95.784C83.4099 95.784 82.7259 96.096 82.2579 96.444L82.6899 97.224C83.1579 96.876 83.6379 96.696 84.1659 96.696C84.8379 96.696 85.2459 97.008 85.2459 97.572C85.2459 98.184 84.7779 98.448 84.0939 98.448H83.4579V99.288H84.2019C85.0539 99.288 85.4499 99.624 85.4499 100.212C85.4499 100.872 84.8859 101.208 84.1899 101.208C83.4579 101.208 82.8819 100.776 82.6059 100.488L82.0659 101.256ZM87.0288 100.344C87.0288 101.484 88.0008 102.144 89.0568 102.144C89.9568 102.144 90.7008 101.604 91.0488 100.908H91.0728C91.0728 100.908 91.0368 101.112 91.0368 101.388V102H92.1288V98.16C92.1288 96.624 91.2528 95.784 89.7288 95.784C88.8768 95.784 87.9528 96.096 87.4608 96.504L87.9288 97.356C88.4208 97.008 89.0328 96.768 89.6328 96.768C90.3888 96.768 90.9648 97.104 90.9648 98.1V98.22H90.6528C89.3928 98.22 87.0288 98.436 87.0288 100.344ZM88.1928 100.248C88.1928 99.132 89.8008 99.06 90.6648 99.06H90.9648V99.288C90.9648 100.188 90.3528 101.22 89.3328 101.22C88.5768 101.22 88.1928 100.728 88.1928 100.248ZM93.3492 102H94.5132V96.924H97.4892V102H98.6532V95.928H93.3492V102ZM99.9508 104.4H101.115V101.64C101.115 101.328 101.067 101.112 101.067 101.112H101.091C101.511 101.76 102.207 102.144 102.975 102.144C104.571 102.144 105.723 100.896 105.723 98.964C105.723 97.08 104.703 95.784 103.059 95.784C102.171 95.784 101.403 96.192 101.019 96.924H100.995C100.995 96.924 101.031 96.72 101.031 96.468V95.928H99.9508V104.4ZM101.079 98.988C101.079 97.452 101.919 96.804 102.831 96.804C103.839 96.804 104.547 97.656 104.547 98.976C104.547 100.356 103.755 101.136 102.795 101.136C101.679 101.136 101.079 100.068 101.079 98.988ZM106.154 100.344C106.154 101.484 107.126 102.144 108.182 102.144C109.082 102.144 109.826 101.604 110.174 100.908H110.198C110.198 100.908 110.162 101.112 110.162 101.388V102H111.254V98.16C111.254 96.624 110.378 95.784 108.854 95.784C108.002 95.784 107.078 96.096 106.586 96.504L107.054 97.356C107.546 97.008 108.158 96.768 108.758 96.768C109.514 96.768 110.09 97.104 110.09 98.1V98.22H109.778C108.518 98.22 106.154 98.436 106.154 100.344ZM107.318 100.248C107.318 99.132 108.926 99.06 109.79 99.06H110.09V99.288C110.09 100.188 109.478 101.22 108.458 101.22C107.702 101.22 107.318 100.728 107.318 100.248ZM112.474 102H115.066C116.386 102 117.298 101.4 117.298 100.272C117.298 99.6 116.902 99.012 116.146 98.832V98.82C116.698 98.58 117.01 98.076 117.01 97.488C117.01 96.468 116.206 95.928 114.982 95.928H112.474V102ZM113.638 98.496V96.732H114.742C115.474 96.732 115.822 97.02 115.822 97.572C115.822 98.136 115.474 98.496 114.778 98.496H113.638ZM113.638 101.184V99.276H114.874C115.678 99.276 116.122 99.636 116.122 100.236C116.122 100.8 115.726 101.184 114.886 101.184H113.638ZM118.209 102H119.373V99.372H120.249L122.061 102H123.441L121.173 98.844V98.82L123.201 95.928H121.881L120.225 98.376H119.373V95.928H118.209V102ZM123.416 100.344C123.416 101.484 124.388 102.144 125.444 102.144C126.344 102.144 127.088 101.604 127.436 100.908H127.46C127.46 100.908 127.424 101.112 127.424 101.388V102H128.516V98.16C128.516 96.624 127.64 95.784 126.116 95.784C125.264 95.784 124.34 96.096 123.848 96.504L124.316 97.356C124.808 97.008 125.42 96.768 126.02 96.768C126.776 96.768 127.352 97.104 127.352 98.1V98.22H127.04C125.78 98.22 123.416 98.436 123.416 100.344ZM124.58 100.248C124.58 99.132 126.188 99.06 127.052 99.06H127.352V99.288C127.352 100.188 126.74 101.22 125.72 101.22C124.964 101.22 124.58 100.728 124.58 100.248ZM129.04 102H130.36L131.632 99.972C131.728 99.828 131.812 99.648 131.812 99.648H131.836C131.836 99.648 131.932 99.828 132.028 99.972L133.3 102H134.62L132.544 98.88L134.5 95.928H133.168L132.04 97.776C131.956 97.932 131.836 98.136 131.836 98.136H131.812C131.812 98.136 131.704 97.932 131.62 97.776L130.492 95.928H129.16L131.116 98.88L129.04 102ZM134.744 103.212H135.668L136.712 100.74H135.488L134.744 103.212ZM24.504 114.964C24.504 116.788 25.836 118.144 27.756 118.144C28.704 118.144 29.628 117.76 30.18 117.172L29.712 116.32C29.244 116.812 28.512 117.136 27.84 117.136C26.58 117.136 25.692 116.188 25.692 114.952C25.692 113.716 26.58 112.792 27.804 112.792C28.44 112.792 29.076 113.08 29.484 113.488L30.036 112.672C29.46 112.06 28.56 111.784 27.756 111.784C25.848 111.784 24.504 113.164 24.504 114.964ZM32.4031 118H33.5551V112.924H35.6791V111.928H30.2911V112.924H32.4031V118ZM36.3219 120.4H37.4859V117.64C37.4859 117.328 37.4379 117.112 37.4379 117.112H37.4619C37.8819 117.76 38.5779 118.144 39.3459 118.144C40.9419 118.144 42.0939 116.896 42.0939 114.964C42.0939 113.08 41.0739 111.784 39.4299 111.784C38.5419 111.784 37.7739 112.192 37.3899 112.924H37.3659C37.3659 112.924 37.4019 112.72 37.4019 112.468V111.928H36.3219V120.4ZM37.4499 114.988C37.4499 113.452 38.2899 112.804 39.2019 112.804C40.2099 112.804 40.9179 113.656 40.9179 114.976C40.9179 116.356 40.1259 117.136 39.1659 117.136C38.0499 117.136 37.4499 116.068 37.4499 114.988ZM42.5249 116.344C42.5249 117.484 43.4969 118.144 44.5529 118.144C45.4529 118.144 46.1969 117.604 46.5449 116.908H46.5689C46.5689 116.908 46.5329 117.112 46.5329 117.388V118H47.6249V114.16C47.6249 112.624 46.7489 111.784 45.2249 111.784C44.3729 111.784 43.4489 112.096 42.9569 112.504L43.4249 113.356C43.9169 113.008 44.5289 112.768 45.1289 112.768C45.8849 112.768 46.4609 113.104 46.4609 114.1V114.22H46.1489C44.8889 114.22 42.5249 114.436 42.5249 116.344ZM43.6889 116.248C43.6889 115.132 45.2969 115.06 46.1609 115.06H46.4609V115.288C46.4609 116.188 45.8489 117.22 44.8289 117.22C44.0729 117.22 43.6889 116.728 43.6889 116.248ZM48.1493 118H49.4693L50.7413 115.972C50.8373 115.828 50.9213 115.648 50.9213 115.648H50.9453C50.9453 115.648 51.0413 115.828 51.1373 115.972L52.4093 118H53.7293L51.6533 114.88L53.6093 111.928H52.2773L51.1493 113.776C51.0653 113.932 50.9453 114.136 50.9453 114.136H50.9213C50.9213 114.136 50.8133 113.932 50.7293 113.776L49.6013 111.928H48.2693L50.2253 114.88L48.1493 118ZM53.7384 114.952C53.7384 116.8 55.2024 118.144 57.0144 118.144C58.8144 118.144 60.2784 116.8 60.2784 114.952C60.2784 113.116 58.8144 111.784 57.0024 111.784C55.2024 111.784 53.7384 113.116 53.7384 114.952ZM54.9264 114.952C54.9264 113.692 55.8624 112.792 57.0144 112.792C58.1544 112.792 59.1024 113.692 59.1024 114.952C59.1024 116.224 58.1544 117.136 57.0144 117.136C55.8624 117.136 54.9264 116.224 54.9264 114.952ZM61.1813 118H63.7733C65.0933 118 66.0053 117.4 66.0053 116.272C66.0053 115.6 65.6093 115.012 64.8533 114.832V114.82C65.4053 114.58 65.7173 114.076 65.7173 113.488C65.7173 112.468 64.9133 111.928 63.6893 111.928H61.1813V118ZM62.3453 114.496V112.732H63.4492C64.1813 112.732 64.5293 113.02 64.5293 113.572C64.5293 114.136 64.1813 114.496 63.4853 114.496H62.3453ZM62.3453 117.184V115.276H63.5813C64.3853 115.276 64.8293 115.636 64.8293 116.236C64.8293 116.8 64.4333 117.184 63.5933 117.184H62.3453ZM66.4116 116.344C66.4116 117.484 67.3836 118.144 68.4396 118.144C69.3396 118.144 70.0836 117.604 70.4316 116.908H70.4556C70.4556 116.908 70.4196 117.112 70.4196 117.388V118H71.5116V114.16C71.5116 112.624 70.6356 111.784 69.1116 111.784C68.2596 111.784 67.3356 112.096 66.8436 112.504L67.3116 113.356C67.8036 113.008 68.4156 112.768 69.0156 112.768C69.7716 112.768 70.3476 113.104 70.3476 114.1V114.22H70.0356C68.7756 114.22 66.4116 114.436 66.4116 116.344ZM67.5756 116.248C67.5756 115.132 69.1836 115.06 70.0476 115.06H70.3476V115.288C70.3476 116.188 69.7356 117.22 68.7156 117.22C67.9596 117.22 67.5756 116.728 67.5756 116.248ZM72.732 118H73.896V115.396H76.968V118H78.132V111.928H76.968V114.4H73.896V111.928H72.732V118ZM79.4273 118H80.5433L83.1713 114.376C83.3633 114.088 83.6633 113.68 83.6993 113.572H83.7233C83.7233 113.668 83.6873 114.088 83.6873 114.376V118H84.8153V111.928H83.6873L81.0713 115.552C80.8673 115.84 80.5793 116.26 80.5313 116.368H80.5073C80.5193 116.308 80.5433 115.876 80.5433 115.552V111.928H79.4273V118ZM85.7032 114.964C85.7032 116.764 87.0232 118.144 88.9312 118.144C89.7712 118.144 90.6952 117.82 91.2832 117.28L90.7912 116.428C90.3112 116.86 89.6512 117.136 89.0032 117.136C87.9112 117.136 86.9752 116.428 86.9152 115.12H91.3312C91.3552 114.952 91.3792 114.784 91.3792 114.628C91.3792 113.068 90.4672 111.784 88.7512 111.784C87.0232 111.784 85.7032 113.032 85.7032 114.964ZM86.9512 114.28C87.1192 113.272 87.8272 112.684 88.7272 112.684C89.5192 112.684 90.1672 113.236 90.2032 114.28H86.9512ZM94.2749 116.344C94.2749 117.484 95.2469 118.144 96.3029 118.144C97.2029 118.144 97.9469 117.604 98.2949 116.908H98.3189C98.3189 116.908 98.2829 117.112 98.2829 117.388V118H99.3749V114.16C99.3749 112.624 98.4989 111.784 96.9749 111.784C96.1229 111.784 95.1989 112.096 94.7069 112.504L95.1749 113.356C95.6669 113.008 96.2789 112.768 96.8789 112.768C97.6349 112.768 98.2109 113.104 98.2109 114.1V114.22H97.8989C96.6389 114.22 94.2749 114.436 94.2749 116.344ZM95.4389 116.248C95.4389 115.132 97.0469 115.06 97.9109 115.06H98.2109V115.288C98.2109 116.188 97.5989 117.22 96.5789 117.22C95.8229 117.22 95.4389 116.728 95.4389 116.248ZM100.595 118H103.187C104.507 118 105.419 117.4 105.419 116.272C105.419 115.6 105.023 115.012 104.267 114.832V114.82C104.819 114.58 105.131 114.076 105.131 113.488C105.131 112.468 104.327 111.928 103.103 111.928H100.595V118ZM101.759 114.496V112.732H102.863C103.595 112.732 103.943 113.02 103.943 113.572C103.943 114.136 103.595 114.496 102.899 114.496H101.759ZM101.759 117.184V115.276H102.995C103.799 115.276 104.243 115.636 104.243 116.236C104.243 116.8 103.847 117.184 103.007 117.184H101.759ZM107.723 118H108.875V112.924H110.999V111.928H105.611V112.924H107.723V118ZM111.047 114.952C111.047 116.8 112.511 118.144 114.323 118.144C116.123 118.144 117.587 116.8 117.587 114.952C117.587 113.116 116.123 111.784 114.311 111.784C112.511 111.784 111.047 113.116 111.047 114.952ZM112.235 114.952C112.235 113.692 113.171 112.792 114.323 112.792C115.463 112.792 116.411 113.692 116.411 114.952C116.411 116.224 115.463 117.136 114.323 117.136C113.171 117.136 112.235 116.224 112.235 114.952ZM118.238 118H119.366L119.63 114.388C119.654 114.028 119.618 113.344 119.618 113.344H119.642C119.642 113.344 119.834 113.8 120.026 114.244L121.466 117.268H122.462L123.902 114.232C124.13 113.764 124.286 113.344 124.286 113.344H124.31C124.31 113.344 124.286 114.028 124.298 114.388L124.562 118H125.69L125.162 111.928H123.89L122.306 115.36C122.15 115.732 121.97 116.176 121.97 116.176H121.946C121.946 116.176 121.778 115.72 121.61 115.36L120.062 111.928H118.766L118.238 118ZM126.359 114.952C126.359 116.8 127.823 118.144 129.635 118.144C131.435 118.144 132.899 116.8 132.899 114.952C132.899 113.116 131.435 111.784 129.623 111.784C127.823 111.784 126.359 113.116 126.359 114.952ZM127.547 114.952C127.547 113.692 128.483 112.792 129.635 112.792C130.775 112.792 131.723 113.692 131.723 114.952C131.723 116.224 130.775 117.136 129.635 117.136C128.483 117.136 127.547 116.224 127.547 114.952ZM133.538 114.508C133.538 116.608 134.462 118.144 136.514 118.144C138.23 118.144 139.382 116.944 139.382 115.264C139.382 113.548 138.326 112.468 136.802 112.468C135.998 112.468 135.194 112.732 134.654 113.548H134.63C134.714 112.384 135.29 111.676 136.502 111.124L138.83 110.152L138.446 109.192L136.274 110.128C134.162 111.016 133.538 112.336 133.538 114.508ZM134.75 115.264C134.75 114.196 135.482 113.392 136.514 113.392C137.426 113.392 138.206 114.1 138.206 115.288C138.206 116.464 137.426 117.16 136.466 117.16C135.53 117.16 134.75 116.464 134.75 115.264ZM140.334 118H141.45L144.078 114.376C144.27 114.088 144.57 113.68 144.606 113.572H144.63C144.63 113.668 144.594 114.088 144.594 114.376V118H145.722V111.928H144.594L141.978 115.552C141.774 115.84 141.486 116.26 141.438 116.368H141.414C141.426 116.308 141.45 115.876 141.45 115.552V111.928H140.334V118ZM146.345 118.06C148.133 117.964 148.829 116.548 148.829 113.8V112.888H150.617V118H151.781V111.928H147.713V113.8C147.713 115.996 147.233 116.884 146.345 117.016V118.06ZM152.468 118H153.752L155.24 115.804H156.26V118H157.424V111.928H155C153.716 111.928 152.828 112.588 152.828 113.836C152.828 114.76 153.452 115.408 154.148 115.6V115.612C154.148 115.612 154.004 115.768 153.872 115.984L152.468 118ZM155.252 114.952C154.544 114.952 154.004 114.58 154.004 113.824C154.004 113.044 154.508 112.732 155.288 112.732H156.26V114.952H155.252Z" fill="white"/>
<path d="M164.444 45H186.667C186.667 45 190 45 190 40.5556C190 38.3333 190 33.8889 188.889 32.7778C187.778 31.6667 180 25 176.667 25H170C166.667 25 158.889 32.7778 158.889 32.7778L154.444 33.8889C154.444 33.8889 151.111 35 151.111 37.2222V40.5556C151.111 40.5556 150 40.9311 150 42.73C150 45 152.222 45 152.222 45H164.444Z" fill="#DD2E44"/>
<path d="M172.222 27.2222H170C167.778 27.2222 161.111 33.8888 161.111 33.8888C161.111 33.8888 166.663 33.5966 172.222 33.3122V27.2222ZM183.333 30.5555C182.222 29.4444 177.778 27.2222 175.556 27.2222H174.444V33.1988C178.901 32.9722 182.869 32.7777 183.333 32.7777C184.444 32.7777 184.444 31.6666 183.333 30.5555Z" fill="#BBDDF5"/>
<path d="M161.111 48.3332C163.566 48.3332 165.556 46.3434 165.556 43.8888C165.556 41.4342 163.566 39.4443 161.111 39.4443C158.657 39.4443 156.667 41.4342 156.667 43.8888C156.667 46.3434 158.657 48.3332 161.111 48.3332Z" fill="#292F33"/>
<path d="M161.111 46.1109C162.338 46.1109 163.333 45.116 163.333 43.8887C163.333 42.6614 162.338 41.6665 161.111 41.6665C159.884 41.6665 158.889 42.6614 158.889 43.8887C158.889 45.116 159.884 46.1109 161.111 46.1109Z" fill="#CCD6DD"/>
<path d="M180 48.3332C182.455 48.3332 184.445 46.3434 184.445 43.8888C184.445 41.4342 182.455 39.4443 180 39.4443C177.546 39.4443 175.556 41.4342 175.556 43.8888C175.556 46.3434 177.546 48.3332 180 48.3332Z" fill="#292F33"/>
<path d="M180 46.1109C181.227 46.1109 182.222 45.116 182.222 43.8887C182.222 42.6614 181.227 41.6665 180 41.6665C178.773 41.6665 177.778 42.6614 177.778 43.8887C177.778 45.116 178.773 46.1109 180 46.1109Z" fill="#CCD6DD"/>
</g>
<defs>
<linearGradient id="paint0_linear" x1="108" y1="0" x2="108" y2="145" gradientUnits="userSpaceOnUse">
<stop stop-color="#FFBC40"/>
<stop offset="1" stop-color="#FFBE44" stop-opacity="0"/>
</linearGradient>
<radialGradient id="paint1_radial" cx="0" cy="0" r="1" gradientUnits="userSpaceOnUse" gradientTransform="translate(167 40) rotate(90) scale(124)">
<stop stop-color="white"/>
<stop offset="1" stop-color="white" stop-opacity="0"/>
</radialGradient>
<clipPath id="clip0">
<rect width="216" height="145" fill="white"/>
</clipPath>
</defs>
</svg>
